<?xml version="1.0" encoding="UTF-8" standalone="no"?>
<svg width="29px" height="29px" viewBox="0 0 29 29" version="1.1" xmlns="http://www.w3.org/2000/svg" xmlns:xlink="http://www.w3.org/1999/xlink">
    <!-- Generator: sketchtool 39.1 (31720) - http://www.bohemiancoding.com/sketch -->
    <title>85A09B09-21B6-4975-94D4-E640116B75BD</title>
    <desc>Created with sketchtool.</desc>
    <defs>
        <rect id="path-1" x="0" y="0" width="327" height="70" rx="5"></rect>
        <mask id="mask-2" maskContentUnits="userSpaceOnUse" maskUnits="objectBoundingBox" x="0" y="0" width="327" height="70" fill="white">
            <use xlink:href="#path-1"></use>
        </mask>
    </defs>
    <g id="Page-1" stroke="none" stroke-width="1" fill="none" fill-rule="evenodd">
        <g id="Desktop" transform="translate(-90.000000, -175.000000)">
            <g id="Browser" transform="translate(62.000000, 153.000000)">
                <use id="Rectangle" stroke="#E1E1E1" mask="url(#mask-2)" stroke-width="2" fill="#FFFFFF" xlink:href="#path-1"></use>
                <path d="M42.167,22 C34.356,22 28,28.355 28,36.167 C28,43.979 34.356,50.334 42.167,50.334 C49.979,50.334 56.335,43.98 56.335,36.167 C56.335,28.355 49.979,22 42.167,22 L42.167,22 Z M55.11,36.167 C55.11,36.415 55.088,36.657 55.073,36.902 C54.982,36.672 54.844,36.372 54.811,36.243 C54.763,36.047 54.47,35.364 54.47,35.364 C54.47,35.364 54.177,34.974 53.982,34.876 C53.788,34.778 53.641,34.534 53.299,34.34 C52.957,34.144 52.812,34.047 52.52,34.047 C52.226,34.047 51.935,33.656 51.592,33.461 C51.25,33.267 51.202,33.364 51.202,33.364 C51.202,33.364 51.592,33.949 51.592,34.095 C51.592,34.241 52.03,34.485 52.471,34.387 C52.471,34.387 52.763,34.924 52.909,35.07 C53.055,35.216 52.86,35.363 52.568,35.558 C52.275,35.752 52.324,35.704 52.176,35.85 C52.03,35.996 51.543,36.242 51.396,36.338 C51.25,36.435 50.665,36.728 50.373,36.435 C50.23,36.294 50.274,35.997 50.178,35.801 C50.08,35.606 49.056,34.094 48.568,33.412 C48.483,33.292 48.275,32.922 48.13,32.827 C47.984,32.728 48.472,32.728 48.472,32.728 C48.472,32.728 48.472,32.386 48.423,32.143 C48.373,31.899 48.472,31.558 48.472,31.558 C48.472,31.558 47.984,31.85 47.836,31.948 C47.691,32.046 47.544,31.754 47.35,31.509 C47.155,31.266 46.959,30.972 46.911,30.728 C46.862,30.485 47.155,30.387 47.155,30.387 L47.593,30.144 C47.593,30.144 48.13,30.047 48.472,30.095 C48.813,30.144 49.349,30.193 49.349,30.193 C49.349,30.193 49.495,29.851 49.3,29.705 C49.106,29.559 48.665,29.315 48.47,29.364 C48.276,29.412 48.567,29.12 48.81,28.925 L48.27,28.827 C48.27,28.827 47.779,29.071 47.632,29.12 C47.486,29.168 47.232,29.266 47.036,29.51 C46.842,29.754 47.114,30.095 46.919,30.193 C46.725,30.291 46.593,30.339 46.446,30.387 C46.3,30.436 45.836,30.387 45.836,30.387 C45.332,30.387 45.655,30.847 45.786,31.01 L45.396,30.534 L45.107,29.852 C45.107,29.852 44.691,29.56 44.496,29.463 C44.301,29.365 43.7,29.024 43.7,29.024 L43.742,29.463 L44.307,30.035 L44.357,30.048 L44.651,30.438 L44.002,30.487 L44.002,30.101 C43.39,29.953 43.55,29.801 43.481,29.754 C43.336,29.657 42.997,29.412 42.997,29.412 C42.997,29.412 42.423,29.51 42.276,29.559 C42.129,29.608 42.088,29.754 41.797,29.851 C41.503,29.949 41.371,30.095 41.274,30.241 C41.177,30.387 40.859,30.826 40.666,31.021 C40.47,31.217 40.108,31.167 39.962,31.167 C39.815,31.167 39.111,30.972 39.111,30.972 L39.111,30.145 C39.111,30.145 39.206,29.681 39.158,29.535 L39.585,29.463 L40.298,29.316 L40.507,29.169 L40.807,28.779 C40.807,28.779 40.47,28.535 40.713,28.194 C40.83,28.03 41.251,27.999 41.446,27.853 C41.64,27.707 41.935,27.609 41.935,27.609 C41.935,27.609 42.277,27.317 42.618,26.975 C42.618,26.975 42.862,26.828 43.154,26.73 C43.154,26.73 43.984,27.462 44.131,27.462 C44.278,27.462 44.814,27.121 44.814,27.121 C44.814,27.121 44.96,26.683 44.912,26.536 C44.863,26.39 44.619,25.902 44.619,25.902 C44.619,25.902 44.473,26.146 44.327,26.341 C44.181,26.536 44.083,26.78 44.083,26.78 C44.083,26.78 43.4,26.733 43.352,26.587 C43.302,26.44 43.206,26.199 43.156,26.054 C43.109,25.907 42.718,25.912 42.427,26.01 C42.133,26.108 42.474,25.484 42.474,25.484 C42.474,25.484 42.768,25.116 42.962,25.116 C43.156,25.116 43.597,24.866 43.79,24.818 C43.986,24.769 44.573,24.546 44.815,24.546 C45.059,24.546 45.352,24.651 45.499,24.651 L46.23,24.651 L47.253,24.569 C47.253,24.569 48.132,24.894 47.838,25.09 C47.838,25.09 48.181,25.301 48.327,25.447 C48.464,25.585 48.818,25.32 49.021,25.207 C52.67,27.497 55.11,31.548 55.11,36.167 L55.11,36.167 Z M31.839,28.535 C31.839,28.73 31.573,28.777 31.839,29.267 C32.179,29.901 31.887,30.194 31.887,30.194 C31.887,30.194 31.057,30.779 30.911,30.877 C30.765,30.975 30.375,31.511 30.618,31.364 C30.862,31.218 31.154,31.072 30.911,31.462 C30.667,31.853 30.228,32.486 30.131,32.731 C30.034,32.976 29.546,33.56 29.546,33.853 C29.546,34.146 29.351,34.732 29.4,34.976 C29.433,35.146 29.325,35.647 29.24,35.853 C29.306,33.111 30.229,30.584 31.753,28.517 C31.803,28.522 31.839,28.535 31.839,28.535 L31.839,28.535 Z M33.406,26.665 C34.599,25.564 35.997,24.686 37.539,24.092 C37.387,24.287 37.203,24.487 37.203,24.487 C37.203,24.487 36.862,24.486 36.227,25.17 C35.594,25.853 35.74,25.658 35.594,25.852 C35.448,26.046 35.496,26.096 35.154,26.341 C34.814,26.584 34.667,26.877 34.667,26.877 L34.13,27.072 L33.692,26.877 C33.692,26.877 33.3,27.024 33.349,26.828 C33.363,26.776 33.384,26.722 33.406,26.665 L33.406,26.665 Z M39.252,27.803 L39.058,27.511 L39.252,27.072 L39.722,27.26 L39.722,26.389 L40.171,26.146 L40.544,26.682 L41.118,27.317 L40.737,27.609 L39.721,27.804 L39.721,27.287 L39.252,27.803 L39.252,27.803 Z M45.594,32.388 C45.708,32.298 46.081,32.534 46.081,32.534 C46.081,32.534 47.3,32.778 47.495,32.924 C47.691,33.071 48.032,33.169 48.13,33.316 C48.228,33.462 48.568,33.901 48.616,34.047 C48.666,34.193 48.91,34.731 48.959,34.925 C49.008,35.12 49.154,35.608 49.3,35.852 C49.446,36.097 50.276,37.169 50.568,37.657 L51.448,37.511 C51.448,37.511 51.349,37.949 51.252,38.096 C51.155,38.242 50.862,38.632 50.716,38.827 C50.569,39.022 50.375,39.315 50.082,39.558 C49.79,39.801 49.788,40.045 49.643,40.241 C49.497,40.436 49.301,40.875 49.301,40.875 C49.301,40.875 49.399,41.851 49.447,42.046 C49.495,42.241 49.106,42.777 49.106,42.777 L48.666,43.217 L48.078,43.996 L48.126,44.727 C48.126,44.727 47.682,45.07 47.437,45.264 C47.195,45.458 47.233,45.605 47.038,45.801 C46.844,45.995 46.081,46.337 45.886,46.386 C45.691,46.435 44.615,46.581 44.615,46.581 L44.615,46.143 L44.593,45.655 C44.593,45.655 44.445,45.07 44.298,44.875 C44.151,44.68 44.215,44.386 43.971,44.143 C43.727,43.899 43.637,43.705 43.588,43.557 C43.539,43.411 43.641,42.973 43.641,42.973 C43.641,42.973 43.838,42.436 43.935,42.241 C44.033,42.046 43.936,41.754 43.838,41.558 C43.74,41.362 43.693,40.874 43.693,40.729 C43.693,40.583 43.301,40.338 43.155,40.192 C43.009,40.046 43.058,39.85 43.058,39.657 C43.058,39.46 42.912,39.022 42.96,38.68 C43.009,38.339 42.522,38.582 42.229,38.68 C41.936,38.778 41.742,38.582 41.742,38.289 C41.742,37.996 41.206,38.241 40.864,38.435 C40.521,38.63 40.132,38.63 39.74,38.777 C39.351,38.923 39.157,38.631 39.157,38.631 C39.157,38.631 38.814,38.339 38.572,38.192 C38.327,38.046 38.083,37.754 37.887,37.51 C37.693,37.265 37.204,36.533 37.157,36.242 C37.108,35.948 37.157,35.752 37.157,35.411 C37.157,35.07 37.157,34.875 37.205,34.631 C37.254,34.387 37.4,34.094 37.547,33.85 C37.693,33.606 38.23,33.314 38.375,33.216 C38.521,33.119 38.863,32.827 38.863,32.631 C38.863,32.436 39.059,32.339 39.155,32.143 C39.254,31.948 39.595,31.461 40.034,31.656 C40.034,31.656 40.423,31.608 40.569,31.559 C40.715,31.51 41.105,31.365 41.298,31.267 C41.493,31.169 41.979,31.123 41.979,31.123 C41.979,31.123 42.363,31.276 42.509,31.276 C42.655,31.276 43.131,31.191 43.131,31.191 C43.131,31.191 43.351,31.898 43.351,32.045 C43.351,32.192 43.497,32.337 43.742,32.435 C43.983,32.534 45.106,32.779 45.594,32.388 L45.594,32.388 Z M51.203,41.949 C51.203,42.095 51.154,42.486 51.105,42.681 C51.054,42.876 50.958,43.218 50.91,43.411 C50.861,43.607 50.617,43.997 50.472,44.095 C50.326,44.193 50.081,44.486 49.936,44.534 C49.79,44.583 49.691,44.192 49.74,43.997 C49.79,43.802 50.033,43.266 50.033,43.266 C50.033,43.266 50.082,42.974 50.13,42.778 C50.18,42.584 50.765,42.34 50.765,42.34 L51.156,41.608 C51.154,41.607 51.203,41.804 51.203,41.949 L51.203,41.949 Z M29.558,39.043 C29.621,39.059 29.711,39.105 29.838,39.218 C30.022,39.378 30.131,39.46 30.375,39.559 C30.618,39.658 30.716,39.802 31.009,39.949 C31.302,40.096 31.205,39.999 31.594,40.437 C31.985,40.875 31.936,40.875 32.033,41.12 C32.13,41.365 32.277,41.607 32.375,41.755 C32.473,41.901 32.765,41.998 32.911,42.096 C33.057,42.194 33.301,42.291 33.447,42.291 C33.594,42.291 34.033,42.73 34.277,42.778 C34.521,42.828 34.521,43.316 34.521,43.316 L34.277,43.998 L34.081,44.729 L34.277,45.314 C34.277,45.314 33.983,45.559 33.79,45.559 C33.61,45.559 33.549,45.673 33.352,45.619 C31.492,43.882 30.143,41.61 29.558,39.043 L29.558,39.043 Z" id="Shape" fill="#515151"></path>
            </g>
        </g>
    </g>
</svg>