<?xml version="1.0" encoding="UTF-8" standalone="no"?>
<svg width="27px" height="31px" viewBox="0 0 27 31" version="1.1" xmlns="http://www.w3.org/2000/svg" xmlns:xlink="http://www.w3.org/1999/xlink">
    <!-- Generator: sketchtool 39.1 (31720) - http://www.bohemiancoding.com/sketch -->
    <title>EE9C55C7-EDA8-4622-9C2F-563380613C6A</title>
    <desc>Created with sketchtool.</desc>
    <defs>
        <filter x="-50%" y="-50%" width="200%" height="200%" filterUnits="objectBoundingBox" id="filter-1">
            <feOffset dx="0" dy="1" in="SourceAlpha" result="shadowOffsetOuter1"></feOffset>
            <feGaussianBlur stdDeviation="1.5" in="shadowOffsetOuter1" result="shadowBlurOuter1"></feGaussianBlur>
            <feColorMatrix values="0 0 0 0 0.705357143   0 0 0 0 0.705357143   0 0 0 0 0.705357143  0 0 0 0.5 0" type="matrix" in="shadowBlurOuter1" result="shadowMatrixOuter1"></feColorMatrix>
            <feMerge>
                <feMergeNode in="shadowMatrixOuter1"></feMergeNode>
                <feMergeNode in="SourceGraphic"></feMergeNode>
            </feMerge>
        </filter>
        <rect id="path-2" x="0" y="0" width="327" height="70" rx="5"></rect>
        <mask id="mask-3" maskContentUnits="userSpaceOnUse" maskUnits="objectBoundingBox" x="0" y="0" width="327" height="70" fill="white">
            <use xlink:href="#path-2"></use>
        </mask>
    </defs>
    <g id="Page-1" stroke="none" stroke-width="1" fill="none" fill-rule="evenodd">
        <g id="Desktop" transform="translate(-91.000000, -324.000000)">
            <g id="Produkte" filter="url(#filter-1)" transform="translate(62.000000, 303.000000)">
                <use id="Rectangle" stroke="#E1E1E1" mask="url(#mask-3)" stroke-width="2" fill="#FFFFFF" xlink:href="#path-2"></use>
                <g id="search-products" transform="translate(29.000000, 21.000000)" fill="#FF6600">
                    <g id="Ebene_1">
                        <path d="M23.328304,0 L11.1729048,0 C10.6502622,0 10.2305644,0.414412739 10.2305644,0.930473885 L10.2305644,3.33094013 C10.2305644,3.80790573 10.6027492,4.20668025 11.0778788,4.2535949 C10.8799082,5.12933503 10.4522915,6.05198981 9.99299956,6.99810191 C9.58122056,7.8347465 9.33573693,8.33516943 8.97938972,9.29691975 C8.93979559,9.40638726 8.96355207,9.53149299 9.04274033,9.62532229 C9.10609095,9.69569427 9.20111687,9.74260892 9.29614279,9.74260892 C9.31989927,9.74260892 9.34365575,9.74260892 9.35949341,9.73478981 C9.79502888,9.64877962 10.246402,9.58622675 10.6819375,9.56276943 C10.8086387,9.55495032 10.9195023,9.47675924 10.9670153,9.35947261 C11.2679307,8.65575287 11.4025507,8.37426497 11.6876285,7.81128917 C12.5982936,5.9503414 13.0417479,4.26923312 13.0417479,2.67413503 C13.0417479,2.49429554 12.8912902,2.34573248 12.7091572,2.34573248 L12.1152451,2.34573248 L12.1152451,1.86876688 L22.3859636,1.86876688 L22.3859636,2.34573248 L21.9187528,2.34573248 C21.7366198,2.34573248 21.5861621,2.49429554 21.5861621,2.67413503 C21.5861621,4.2535949 22.0137787,5.92688408 22.8927685,7.79565096 C23.7955147,9.69569427 24.8249622,11.8537682 24.8249622,15.3489096 L24.8249622,26.7804459 C24.8249622,27.7109197 24.4052644,28.8055949 23.233278,28.8055949 L11.3154436,28.8055949 C10.3255903,28.8055949 9.94548659,28.3911822 9.81086654,27.945493 C9.7712724,27.8282064 9.66832766,27.7343771 9.54954525,27.7187389 C9.11400978,27.6483669 8.69431195,27.5388994 8.29045178,27.4137936 C8.25877648,27.4059745 8.21918234,27.3981554 8.18750704,27.3981554 C8.10831877,27.3981554 8.03704933,27.4216127 7.97369871,27.4763465 C7.88659162,27.5467185 7.83907866,27.6640051 7.85491631,27.7734726 C8.10831877,29.7126115 9.50203229,30.69 11.3154436,30.69 L23.2253592,30.69 C25.2763354,30.69 26.7017242,29.0949019 26.7017242,26.8039032 L26.7017242,15.3645478 C26.7017242,11.4628127 25.4822249,8.89814522 24.5873974,7.02155924 C24.1201866,6.02071338 23.7163265,5.10587771 23.5341935,4.2457758 C23.9538913,4.1519465 24.2706443,3.7766293 24.2706443,3.33875924 L24.2706443,0.930473885 C24.2706443,0.414412739 23.8509465,0 23.328304,0 L23.328304,0 L23.328304,0 Z M11.0303659,10.4228713 C8.82101318,10.4228713 6.73836172,11.2829732 5.15459636,12.8467949 C2.14544216,15.8180561 1.8920397,20.5955312 4.52900904,23.8639185 L0.15781662,28.1800662 C0.094466005,28.2426191 0.0627906977,28.3286293 0.0627906977,28.4146395 C0.0627906977,28.5006497 0.094466005,28.5866599 0.15781662,28.6492127 L1.02096875,29.5014955 C1.08431936,29.5640484 1.17142646,29.5953248 1.25853355,29.5953248 C1.34564065,29.5953248 1.43274774,29.5640484 1.49609836,29.5014955 L5.86729077,25.1853478 C7.34019256,26.3503949 9.18527922,26.9915618 11.0857977,26.9915618 C13.3268257,26.9915618 15.4411524,26.1314599 17.016999,24.5676382 C20.2795556,21.3305274 20.2795556,16.0760866 17.016999,12.8467949 C15.4332336,11.2829732 13.3268257,10.4228713 11.0857977,10.4228713 L11.0303659,10.4228713 L11.0303659,10.4228713 L11.0303659,10.4228713 Z M11.0857977,25.130614 C9.35157458,25.130614 7.72029625,24.4581707 6.49287809,23.2462089 C5.25754111,22.026428 4.58444082,20.4156917 4.58444082,18.6954879 C4.58444082,16.9831032 5.26545993,15.380186 6.49287809,14.1760433 C7.72029625,12.9640815 9.35157458,12.2916382 11.0857977,12.2916382 C12.8200207,12.2916382 14.4512991,12.9640815 15.6787172,14.1760433 C16.9061354,15.380186 17.5871545,16.9909223 17.5871545,18.6954879 C17.5871545,20.4156917 16.9140542,22.026428 15.6787172,23.2462089 C14.4512991,24.4581707 12.8200207,25.130614 11.0857977,25.130614 L11.0857977,25.130614 L11.0857977,25.130614 Z" id="Shape"></path>
                    </g>
                </g>
            </g>
        </g>
    </g>
</svg>