<?xml version="1.0" encoding="UTF-8" standalone="no"?>
<svg width="54px" height="29px" viewBox="0 0 54 29" version="1.1" xmlns="http://www.w3.org/2000/svg" xmlns:xlink="http://www.w3.org/1999/xlink">
    <!-- Generator: sketchtool 39.1 (31720) - http://www.bohemiancoding.com/sketch -->
    <title>5C63CED2-A94C-407C-B3FC-6BAC257C662F</title>
    <desc>Created with sketchtool.</desc>
    <defs>
        <rect id="path-1" x="0" y="0" width="327" height="70" rx="5"></rect>
        <mask id="mask-2" maskContentUnits="userSpaceOnUse" maskUnits="objectBoundingBox" x="0" y="0" width="327" height="70" fill="white">
            <use xlink:href="#path-1"></use>
        </mask>
    </defs>
    <g id="Page-1" stroke="none" stroke-width="1" fill="none" fill-rule="evenodd">
        <g id="Desktop" transform="translate(-82.000000, -774.000000)">
            <g id="M-API" transform="translate(62.000000, 753.000000)">
                <use id="Rectangle" stroke="#E1E1E1" mask="url(#mask-2)" stroke-width="2" fill="#FFFFFF" xlink:href="#path-1"></use>
                <g id="m-api-logo" transform="translate(20.000000, 21.000000)" fill="#FF6600">
                    <path d="M50.9736173,11.3641343 C49.9366808,11.3641343 49.0634711,12.0628572 48.8042369,12.9856987 L43.1420177,12.9856987 L43.1420177,9.94032166 C43.1420177,4.48237316 38.3257203,0.0659172524 32.663501,0.0659172524 L23.0854819,0.0659172524 C18.3374041,0.0659172524 14.3397408,3.09811086 13.1663653,7.31681501 L11.9657019,7.31681501 L10.7786825,7.31681501 L7.02660945,7.31681501 C6.72644361,6.52580799 5.8941656,5.87981891 4.91180467,5.87981891 C3.6702096,5.87981891 2.66056086,6.8685777 2.66056086,8.06827169 C2.66056086,9.26796568 3.6702096,10.2830914 4.91180467,10.2830914 C5.93509731,10.2830914 6.79466312,9.6898361 7.06754116,8.76699457 L9.35971667,8.76699457 C9.22327765,9.16249808 9.12777034,9.57118504 9.03226303,10.0062389 C8.63658987,11.8255551 8.26820452,12.9856987 6.90381434,12.9856987 L4.48884371,12.9856987 C4.20232177,12.1946917 3.35639986,11.4564185 2.36039502,11.4564185 C1.11879995,11.4564185 0.109151215,12.4188103 0.109151215,13.6185043 C0.109151215,14.8181983 1.11879995,15.8069571 2.36039502,15.8069571 C3.37004376,15.8069571 4.21596567,15.2268853 4.50248761,14.3040438 L6.90381434,14.3040438 C9.45522398,14.3040438 9.98733616,11.8914723 10.3420776,10.2830914 C10.4648727,9.75575335 10.6558873,8.89882907 10.8196142,8.76699457 L12.0066336,8.76699457 L12.9480629,8.76699457 C12.8934873,9.16249808 12.8798434,9.51845124 12.8798434,9.94032166 L12.8798434,17.9558595 C12.8798434,18.4436472 12.8934873,18.905068 12.9617068,19.432406 L8.67752158,19.432406 C8.43193135,18.5095645 7.55872163,17.7844747 6.50814118,17.7844747 C5.26654612,17.7844747 4.25689738,18.7468666 4.25689738,19.9465606 C4.25689738,21.1462546 5.26654612,22.1481968 6.50814118,22.1481968 C7.47685822,22.1481968 8.29549233,21.5549415 8.60930207,20.7639345 L13.2345848,20.7639345 C14.462536,24.8508041 18.4192675,28.0148323 23.0991258,28.0148323 L32.6771449,28.0148323 C38.3393642,28.0148323 43.1556616,23.4269915 43.1556616,17.969043 L43.1556616,14.3040438 L48.8724564,14.3040438 C49.1862662,15.0950508 50.0049003,15.714673 50.9736173,15.714673 C52.2152124,15.714673 53.2248611,14.7390976 53.2248611,13.5394036 C53.2112172,12.3397096 52.2152124,11.3641343 50.9736173,11.3641343 L50.9736173,11.3641343 Z M2.36039502,14.4886121 C1.85557065,14.4886121 1.4462536,14.0931086 1.4462536,13.6053209 C1.4462536,13.1175332 1.85557065,12.7220297 2.36039502,12.7220297 C2.86521939,12.7220297 3.27453645,13.1175332 3.27453645,13.6053209 C3.26089254,14.106292 2.85157549,14.4886121 2.36039502,14.4886121 L2.36039502,14.4886121 Z M4.89816077,8.96474632 C4.3933364,8.96474632 3.98401934,8.56924281 3.98401934,8.08145514 C3.98401934,7.59366747 4.3933364,7.19816396 4.89816077,7.19816396 C5.40298513,7.19816396 5.81230219,7.59366747 5.81230219,8.08145514 C5.81230219,8.56924281 5.40298513,8.96474632 4.89816077,8.96474632 L4.89816077,8.96474632 Z M6.50814118,20.8166683 C6.00331682,20.8166683 5.59399976,20.4211648 5.59399976,19.9333771 C5.59399976,19.4455895 6.00331682,19.0500859 6.50814118,19.0500859 C7.01296555,19.0500859 7.42228261,19.4455895 7.42228261,19.9333771 C7.42228261,20.4211648 7.01296555,20.8166683 6.50814118,20.8166683 L6.50814118,20.8166683 Z M40.4268812,18.0745106 C40.4268812,22.1218299 37.0704813,25.3649587 32.8681596,25.3649587 L23.1400575,25.3649587 C18.9513797,25.3649587 15.4448969,22.1218299 15.4448969,18.0745106 L15.4448969,9.99305546 C15.4448969,5.94573616 18.9377358,2.55758939 23.1400575,2.55758939 L32.8681596,2.55758939 C37.0568374,2.55758939 40.4268812,5.94573616 40.4268812,9.99305546 L40.4268812,18.0745106 L40.4268812,18.0745106 Z M50.9736173,14.3963279 C50.468793,14.3963279 50.0594759,14.0008244 50.0594759,13.5130367 C50.0594759,13.0252491 50.468793,12.6297456 50.9736173,12.6297456 C51.4784417,12.6297456 51.8877588,13.0252491 51.8877588,13.5130367 C51.8877588,14.0008244 51.4784417,14.3963279 50.9736173,14.3963279 L50.9736173,14.3963279 Z" id="Shape"></path>
                    <polygon id="Shape" points="32.1723206 20.5134489 32.1723206 12.9329649 28.8022768 20.5134489 26.9330623 20.5134489 23.6175941 12.9329649 23.6175941 20.5134489 20.1383991 20.5134489 20.1383991 7.38273227 24.8046136 7.38273227 28.0109305 14.7918314 31.3400426 7.38273227 35.6515155 7.38273227 35.6515155 20.5134489 32.1723206 20.5134489"></polygon>
                </g>
            </g>
        </g>
    </g>
</svg>